<?xml version="1.0" encoding="UTF-8"?>
<svg viewBox="0 0 24 24" xmlns="http://www.w3.org/2000/svg" fill="white">
    <path d="m4.4141 1.9961-3.4102 0.017578 0.0097657 2 2.0703-0.0097657 3.2949 7.9043-1.1973 1.916c-0.4 0.64-0.42069 1.4484-0.054688 2.1074s1.0605 1.0684 1.8145 1.0684h12.059v-2h-12.059l-0.064453-0.11719 1.1758-1.8828h7.4687c0.727 0 1.396-0.3953 1.748-1.0293l3.6035-6.4844c0.173-0.31 0.16828-0.68814-0.011719-0.99414-0.18-0.305-0.50928-0.49219-0.86328-0.49219h-14.748l-0.83594-2.0039zm1.668 4.0039h12.217l-2.7773 5h-7.3555l-2.084-5zm0.91797 12a2 2 0 0 0-2 2 2 2 0 0 0 2 2 2 2 0 0 0 2-2 2 2 0 0 0-2-2zm10 0a2 2 0 0 0-2 2 2 2 0 0 0 2 2 2 2 0 0 0 2-2 2 2 0 0 0-2-2z"/>
</svg>