<?xml version="1.0" encoding="UTF-8"?>
<!DOCTYPE svg  PUBLIC '-//W3C//DTD SVG 20010904//EN'  'http://www.w3.org/TR/2001/REC-SVG-20010904/DTD/svg10.dtd'>
<svg fill="#3560eb" width="200px" height="200px" version="1.0" viewBox="0 0 256.000000 256.000000" xmlns="http://www.w3.org/2000/svg">
<metadata>Created by potrace 1.16, written by Peter Selinger 2001-2019</metadata>
<g transform="translate(0 256) scale(.1 -.1)">
<path d="m1180 2514c-64-36-105-78-156-160-50-80-98-195-138-326l-27-87-208-3-208-3-35-27c-72-55-68-2-68-928s-4-873 68-928l35-27h857 857l35 27c72 55 68 2 68 928s4 873-68 928l-35 27-218 3-217 3-37 107c-50 145-146 328-206 395-62 70-116 97-195 97-45 0-70-6-104-26zm187-146c23-24 57-70 77-104 31-54 112-241 131-301l6-23h-291-290l6 28c14 58 85 237 118 296 49 88 114 146 164 146 31 0 45-7 79-42zm-392-475c-8-27-23-97-35-158-15-83-25-114-41-127-28-23-35-23-63 5-27 27-25 49 15 230l22 97h58 58l-14-47zm744 15c6-18 24-85 41-148 27-105 28-116 14-138-37-57-87-31-104 55-7 32-25 102-41 155-16 54-29 100-29 103s24 5 54 5c53 0 55-1 65-32zm-569-708c21-11 65-50 97-87 129-149 131-150 225-68 98 86 149 102 222 71 42-18 53-48 31-82-15-24-21-25-65-19-48 7-50 6-97-38-80-75-120-97-172-97-68 1-98 22-200 138-95 108-88 108-170-3-62-83-75-95-101-95-20 0-34 8-45 24-20 30-15 40 65 146 102 134 132 150 210 110z"/>
</g> fill
</svg>
