<?xml version="1.0" encoding="UTF-8"?>
<svg fill="red" width="40"  height="40" version="1.0" viewBox="0 0 344 344" xmlns="http://www.w3.org/2000/svg">
    <metadata>
        Created by potrace 1.16, written by Peter Selinger 2001-2019
    </metadata>
    <g transform="translate(-75, 415) scale(.14, -.14)">
        <path d="m493 2990c-67-41-63 45-63-1270s-4-1229 63-1270c31-19 59-20 1225-20 1317 0 1231-4 1272 63 19 31 20 59 20 1227s-1 1196-20 1227c-41 67 45 63-1272 63-1166 0-1194-1-1225-20zm1014-852 213-212 213 212c182 181 217 212 243 212 42 0 174-132 174-175 0-24-33-62-212-242l-212-213 212-213c177-178 212-218 212-242 0-41-134-175-175-175-24 0-64 35-242 212l-213 212-213-212c-180-179-218-212-242-212-43 0-175 132-175 174 0 26 31 61 212 243l212 213-212 213c-179 180-212 218-212 242 0 43 132 175 174 175 26 0 61-31 243-212z"/>
    </g>
</svg>