<?xml version="1.0" encoding="UTF-8"?>
<!DOCTYPE svg PUBLIC '-//W3C//DTD SVG 20010904//EN' 'http://www.w3.org/TR/2001/REC-SVG-20010904/DTD/svg10.dtd'>
<svg width="170" fill="#fff" version="1.0" viewBox="0 0 512.000000 250.000000" xmlns="http://www.w3.org/2000/svg">
    <g transform="translate(0 250) scale(.1 -.1)">
        <path d="m2608 2256c-31-23-38-65-38-215v-148l-114-5c-106-4-117-6-150-32-53-40-66-73-66-165v-79l-237-4-238-3-58-29c-68-35-130-99-157-161-16-36-24-45-45-45-23 0-25 3-25 49 0 64-6 79-42 97s-70 12-98-18c-19-20-20-35-20-215 0-193 0-194 25-218 32-33 83-34 113-2 17 18 22 36 22 80 0 54 1 57 25 57 20 0 29-10 50-54 35-73 116-147 187-169 48-16 131-17 933-15l880 3 50 25c73 35 138 105 165 176 29 78 25 187-10 256-32 65-94 126-160 157-54 25-60 26-292 29l-238 3v69c0 82-11 114-53 158-39 41-80 52-189 52h-88v100c0 112 5 120 79 120 46 0 81 34 81 80 0 15-9 39-21 54-20 25-23 26-137 26-80-1-122-5-134-14z"/>
        <path d="m1540 515v-285h60c59 0 60 1 60 28 0 15 4 22 8 16 30-43 125-59 181-29 134 69 134 311 0 380-44 23-110 19-152-9l-36-25-3 102-3 102-57 3-58 3v-286zm257 1c24-21 28-31 28-79 0-45-5-60-24-81-39-42-101-34-126 15-25 48-19 106 14 140 36 36 70 37 108 5z"/>
        <path d="m3426 779c-32-25-36-77-7-103 28-25 79-17 104 16 17 23 18 31 8 56-11 26-46 52-70 52-5 0-20-9-35-21z"/>
        <path d="m753 759c-99-29-137-167-66-241 15-16 63-48 106-70 63-33 77-45 77-64 0-56-85-67-172-23-21 11-40 19-43 19s-5-27-5-61c0-60 0-60 37-75 58-25 179-22 230 5 68 34 100 101 83 174-11 51-43 83-127 127-75 40-94 61-77 88 15 23 91 28 139 8 21-9 39-16 41-16s4 27 4 60v59l-37 10c-46 13-146 13-190 0z"/>
        <path d="m1070 498c0-165 9-207 51-242 42-36 121-36 173-1l36 24v-24c0-24 3-25 60-25h60v205 205h-60-60v-119c0-65-5-132-11-149-20-57-91-64-119-12-5 10-10 77-10 149v131h-60-60v-142z"/>
        <path d="m2020 435v-205h59 59l4 134c3 115 6 137 22 155 25 27 61 27 80-1 13-18 16-51 16-155v-133h60 60v135c0 122 2 137 20 155 23 23 62 26 78 7 7-8 13-71 14-153l3-139h60 60v155c-1 127-4 161-18 187-21 40-63 63-114 63-39 0-100-30-109-54-3-9-15-3-38 20-29 29-41 34-82 34-35 0-56-6-81-26l-33-25v25c0 25-2 26-60 26h-60v-205z"/>
        <path d="m2738 628c-26-9-28-14-28-64 0-30 2-54 3-54 2 0 18 7 35 15 38 19 117 22 137 5 8-7 15-23 15-36 0-22-4-24-47-24-71 0-119-17-147-51-43-51-29-135 28-173 32-21 114-21 144 0 20 14 22 14 22 0 0-13 12-16 60-16h60v155c0 174-7 201-63 235-25 16-49 20-112 19-44 0-92-5-107-11zm162-261c0-32-18-47-57-47-30 0-33 3-33 28 0 37 6 42 52 42 33 0 38-3 38-23z"/>
        <path d="m3110 435v-205h60 60v115c0 84 4 124 15 145 17 32 51 46 91 36 25-7 25-6 22 51s-3 58-36 61c-25 3-39-3-62-27l-30-29v29c0 29 0 29-60 29h-60v-205z"/>
        <path d="m3410 435v-205h60 60l-2 203-3 202-57 3-58 3v-206z"/>
        <path d="m3620 435v-205h60 60v129c0 115 2 131 21 155 26 33 71 35 93 4 13-18 16-51 16-155v-133h61 60l-3 171-3 171-37 34c-32 29-45 34-86 34-36 0-59-7-86-25l-36-24v24c0 24-3 25-60 25h-60v-205z"/>
        <path d="m4154 615c-68-40-88-84-89-187 0-82 2-88 31-125 47-58 84-75 159-75 113-1 182 61 201 178 14 89-43 195-119 223-52 20-138 13-183-14zm145-84c37-37 40-154 4-193-20-22-66-23-87-3-43 44-44 148-1 191 29 29 58 31 84 5z"/>
    </g>
</svg>