<?xml version="1.0" encoding="UTF-8"?>
<!DOCTYPE svg  PUBLIC '-//W3C//DTD SVG 1.1//EN'  'http://www.w3.org/Graphics/SVG/1.1/DTD/svg11.dtd'>
<svg enable-background="new 0 0 494.585 494.585" version="1.1" viewBox="0 0 494.585 494.585" xml:space="preserve" xmlns="http://www.w3.org/2000/svg">
	<path d="m337.05 211.62h-192.92c-8.78 0-15.915 7.135-15.915 15.915v42.15c0 8.788 7.135 15.914 15.915 15.914h192.92c8.788 0 15.913-7.126 15.913-15.914v-42.15c0-8.78-7.125-15.915-15.913-15.915z"/>
	<path d="m247.29 0c-136.35 0-247.29 110.94-247.29 247.29s110.94 247.29 247.29 247.29c136.35 0 247.29-110.94 247.29-247.29s-110.94-247.29-247.29-247.29zm0 441.29c-106.97 0-194-87.028-194-194 0-106.97 87.028-194 194-194 106.97 0 194 87.028 194 194-1e-3 106.97-87.028 194-194 194z"/>
</svg>
